<svg width="27" height="27" viewBox="0 0 27 27" fill="none" xmlns="http://www.w3.org/2000/svg">
<g id="vuesax/outline/element-4">
<g id="element-4">
<path id="Vector" d="M22.2413 15.4687H17.6962C15.435 15.4687 14.3438 14.4225 14.3438 12.2625V4.6125C14.3438 2.4525 15.4462 1.40625 17.6962 1.40625H22.2413C24.5025 1.40625 25.5938 2.4525 25.5938 4.6125V12.2625C25.5938 14.4225 24.4913 15.4687 22.2413 15.4687ZM17.6962 3.09375C16.2675 3.09375 16.0313 3.47625 16.0313 4.6125V12.2625C16.0313 13.3987 16.2675 13.7812 17.6962 13.7812H22.2413C23.67 13.7812 23.9063 13.3987 23.9063 12.2625V4.6125C23.9063 3.47625 23.67 3.09375 22.2413 3.09375H17.6962Z" fill="white"/>
<path id="Vector_2" d="M22.2413 25.5937H17.6962C15.435 25.5937 14.3438 24.5475 14.3438 22.3875V20.3625C14.3438 18.2025 15.4462 17.1562 17.6962 17.1562H22.2413C24.5025 17.1562 25.5938 18.2025 25.5938 20.3625V22.3875C25.5938 24.5475 24.4913 25.5937 22.2413 25.5937ZM17.6962 18.8437C16.2675 18.8437 16.0313 19.2262 16.0313 20.3625V22.3875C16.0313 23.5237 16.2675 23.9062 17.6962 23.9062H22.2413C23.67 23.9062 23.9063 23.5237 23.9063 22.3875V20.3625C23.9063 19.2262 23.67 18.8437 22.2413 18.8437H17.6962Z" fill="white"/>
<path id="Vector_3" d="M9.30326 25.5937H4.75826C2.49701 25.5937 1.40576 24.5475 1.40576 22.3875V14.7375C1.40576 12.5775 2.50826 11.5312 4.75826 11.5312H9.30326C11.5645 11.5312 12.6558 12.5775 12.6558 14.7375V22.3875C12.6558 24.5475 11.5533 25.5937 9.30326 25.5937ZM4.75826 13.2187C3.32951 13.2187 3.09326 13.6013 3.09326 14.7375V22.3875C3.09326 23.5237 3.32951 23.9062 4.75826 23.9062H9.30326C10.732 23.9062 10.9683 23.5237 10.9683 22.3875V14.7375C10.9683 13.6013 10.732 13.2187 9.30326 13.2187H4.75826Z" fill="white"/>
<path id="Vector_4" d="M9.30326 9.84375H4.75826C2.49701 9.84375 1.40576 8.7975 1.40576 6.6375V4.6125C1.40576 2.4525 2.50826 1.40625 4.75826 1.40625H9.30326C11.5645 1.40625 12.6558 2.4525 12.6558 4.6125V6.6375C12.6558 8.7975 11.5533 9.84375 9.30326 9.84375ZM4.75826 3.09375C3.32951 3.09375 3.09326 3.47625 3.09326 4.6125V6.6375C3.09326 7.77375 3.32951 8.15625 4.75826 8.15625H9.30326C10.732 8.15625 10.9683 7.77375 10.9683 6.6375V4.6125C10.9683 3.47625 10.732 3.09375 9.30326 3.09375H4.75826Z" fill="white"/>
</g>
</g>
</svg>
