<svg width="25" height="25" viewBox="0 0 25 25" fill="none" xmlns="http://www.w3.org/2000/svg">
<g id="Group 37204">
<path id="Vector" d="M15.6893 16.0712H24.6179V17.8569H15.6893V16.0712ZM15.6893 19.6426H24.6179V21.4283H15.6893V19.6426ZM15.6893 23.214H24.6179V24.9997H15.6893V23.214ZM12.1179 16.0712C11.6459 16.0821 11.1765 15.9973 10.7383 15.8217C10.3 15.6461 9.90188 15.3834 9.56802 15.0496C9.23417 14.7157 8.9715 14.3176 8.79591 13.8794C8.62033 13.4411 8.53546 12.9717 8.54646 12.4997C8.53546 12.0277 8.62033 11.5584 8.79591 11.1201C8.9715 10.6818 9.23417 10.2837 9.56802 9.94986C9.90188 9.616 10.3 9.35334 10.7383 9.17775C11.1765 9.00216 11.6459 8.9173 12.1179 8.92829C12.5899 8.9173 13.0592 9.00216 13.4975 9.17775C13.9358 9.35334 14.3339 9.616 14.6678 9.94986C15.0016 10.2837 15.2643 10.6818 15.4399 11.1201C15.6154 11.5584 15.7003 12.0277 15.6893 12.4997H17.475C17.475 11.4402 17.1608 10.4044 16.5722 9.52345C15.9835 8.64248 15.1469 7.95584 14.168 7.55037C13.1891 7.1449 12.1119 7.03881 11.0728 7.24552C10.0336 7.45222 9.07903 7.96244 8.32982 8.71165C7.58061 9.46086 7.07039 10.4154 6.86368 11.4546C6.65697 12.4938 6.76306 13.5709 7.16853 14.5498C7.574 15.5287 8.26064 16.3654 9.14162 16.954C10.0226 17.5427 11.0583 17.8569 12.1179 17.8569V16.0712Z" fill="white"/>
<path id="Vector_2" d="M23.9977 8.075L21.8906 4.425C21.6842 4.06721 21.3602 3.79203 20.9737 3.64633C20.5872 3.50062 20.1621 3.4934 19.7709 3.62589L17.5977 4.36161C17.2232 4.10935 16.8318 3.88322 16.4263 3.68482L15.9763 1.43482C15.8952 1.03017 15.6764 0.666107 15.3572 0.404527C15.038 0.142946 14.6381 1.57837e-06 14.2254 0H10.0111C9.59828 4.28904e-05 9.19823 0.143114 8.87901 0.404872C8.55979 0.66663 8.34112 1.0309 8.26021 1.43571L7.81021 3.68482C7.40018 3.88123 7.00429 4.10588 6.62538 4.35714L4.46467 3.62589C4.07369 3.49386 3.64905 3.50132 3.26295 3.64701C2.87685 3.79269 2.55312 4.0676 2.34681 4.425L0.23967 8.075C0.0332514 8.4324 -0.0429905 8.85028 0.0239114 9.25755C0.0908133 9.66482 0.296728 10.0363 0.606634 10.3089L2.33074 11.8241C2.31556 12.0491 2.29681 12.2723 2.29681 12.5C2.29681 12.7304 2.30515 12.9583 2.32181 13.1839L0.607527 14.6911C0.297332 14.9634 0.0910746 15.3348 0.0238452 15.7421C-0.0433841 16.1494 0.0325668 16.5674 0.238777 16.925L2.34592 20.575C2.5523 20.9328 2.87632 21.208 3.26281 21.3537C3.6493 21.4994 4.07435 21.5066 4.46556 21.3741L6.63878 20.6384C7.01321 20.8909 7.40461 21.1174 7.81021 21.3161L8.25931 23.5643C8.34026 23.9692 8.55906 24.3336 8.87846 24.5954C9.19786 24.8572 9.59813 25.0002 10.0111 25H12.1182V23.2143H10.0111L9.37717 20.0446C8.50027 19.7188 7.68622 19.244 6.97092 18.6411L3.89324 19.6821L1.7861 16.0321L4.21913 13.8937C4.05219 12.9705 4.05007 12.0249 4.21288 11.1009L1.7861 8.96696L3.89324 5.31786L6.95306 6.35357C7.6731 5.7493 8.49357 5.27606 9.37717 4.95536L10.0111 1.78571H14.2254L14.8593 4.95536C15.7362 5.2812 16.5503 5.75604 17.2656 6.35893L20.3432 5.31786L22.4504 8.96786L19.9522 11.1571L21.129 12.5L23.629 10.3089C23.9391 10.0366 24.1454 9.66516 24.2126 9.25788C24.2799 8.85059 24.2039 8.4326 23.9977 8.075Z" fill="white"/>
</g>
</svg>
