<svg width="25" height="25" viewBox="0 0 25 25" fill="none" xmlns="http://www.w3.org/2000/svg">
<path id="Vector" d="M0.778773 25C0.558202 25 0.373005 24.925 0.223183 24.775C0.0733613 24.625 -0.00102967 24.4391 1.0763e-05 24.2172C0.00105119 23.9953 0.0754422 23.8099 0.223183 23.6609C0.370924 23.512 0.556641 23.4375 0.780333 23.4375H2.67027V13.2812H0.780333C0.558722 13.2812 0.373525 13.2063 0.224744 13.0562C0.0759623 12.9062 0.00105119 12.7203 1.0763e-05 12.4984C-0.00102967 12.2766 0.0738814 12.0911 0.224744 11.9422C0.375606 11.7932 0.560803 11.7188 0.780333 11.7188H2.67027V1.5625H0.780333C0.558722 1.5625 0.373525 1.4875 0.224744 1.3375C0.0759623 1.1875 0.00105119 1.00156 1.0763e-05 0.779688C-0.00102967 0.557813 0.0738814 0.372396 0.224744 0.223438C0.375606 0.0744794 0.560283 0 0.778773 0H24.2197C24.4413 0 24.6265 0.0750001 24.7753 0.225C24.924 0.375 24.9989 0.560937 25 0.782812C25.001 1.00469 24.9261 1.1901 24.7753 1.33906C24.6244 1.48802 24.4392 1.5625 24.2197 1.5625H22.3594V11.7188H24.2197C24.4413 11.7188 24.6265 11.7937 24.7753 11.9438C24.924 12.0938 24.9989 12.2797 25 12.5016C25.001 12.7234 24.9261 12.9089 24.7753 13.0578C24.6244 13.2068 24.4392 13.2812 24.2197 13.2812H22.3594V23.4375H24.2197C24.4413 23.4375 24.6265 23.5125 24.7753 23.6625C24.924 23.8125 24.9989 23.9984 25 24.2203C25.001 24.4422 24.9261 24.6276 24.7753 24.7766C24.6244 24.9255 24.4392 25 24.2197 25H0.778773ZM4.23092 23.4375H20.7987V13.2812H20.0184C19.7968 13.2812 19.6111 13.2063 19.4613 13.0562C19.3114 12.9062 19.237 12.7203 19.2381 12.4984C19.2391 12.2766 19.3135 12.0911 19.4613 11.9422C19.609 11.7932 19.7947 11.7188 20.0184 11.7188H20.7987V1.5625H4.23092V11.7188H5.01124C5.23285 11.7188 5.41857 11.7937 5.56839 11.9438C5.71821 12.0938 5.79261 12.2797 5.79157 12.5016C5.79052 12.7234 5.71613 12.9089 5.56839 13.0578C5.42065 13.2068 5.23494 13.2812 5.01124 13.2812H4.23092V23.4375ZM12.5117 17.7594C13.5938 17.7594 14.5151 17.3844 15.2756 16.6344C16.0362 15.8865 16.4164 14.9802 16.4164 13.9156C16.4164 13.0698 16.1725 12.3432 15.6845 11.7359C15.1965 11.1286 14.14 9.88125 12.5148 7.99375C10.9042 9.87188 9.85132 11.1193 9.35608 11.7359C8.86083 12.3526 8.61321 13.0818 8.61321 13.9234C8.61321 14.9839 8.99245 15.888 9.75092 16.6359C10.5084 17.3849 11.4286 17.7594 12.5117 17.7594Z" fill="white"/>
</svg>
