<svg width="28" height="23" viewBox="0 0 28 23" fill="none" xmlns="http://www.w3.org/2000/svg">
<g id="Group">
<path id="Vector" d="M1 2.3C1 1.95522 1.13696 1.62456 1.38076 1.38076C1.62456 1.13696 1.95522 1 2.3 1H25.7C26.0448 1 26.3754 1.13696 26.6192 1.38076C26.863 1.62456 27 1.95522 27 2.3V20.5C27 20.8448 26.863 21.1754 26.6192 21.4192C26.3754 21.663 26.0448 21.8 25.7 21.8H2.3C1.95522 21.8 1.62456 21.663 1.38076 21.4192C1.13696 21.1754 1 20.8448 1 20.5V2.3Z" stroke="white" stroke-width="1.5" stroke-linejoin="round"/>
<path id="Vector_2" d="M21.8 1V21.8M6.2 1V21.8M23.1 7.5H27M23.1 15.3H27M1 7.5H4.9M1 6.2V8.8M4.25 1H8.15M4.25 21.8H8.15M19.85 1H23.75M19.85 21.8H23.75M1 15.3H4.9M1 14V16.6M27 14V16.6M27 6.2V8.8" stroke="white" stroke-width="1.5" stroke-linecap="round" stroke-linejoin="round"/>
<path id="Vector_3" d="M12.0498 8.15039L17.2498 11.4004L12.0498 14.6504V8.15039Z" stroke="white" stroke-width="1.5" stroke-linejoin="round"/>
</g>
</svg>
