<svg width="27" height="27" viewBox="0 0 27 27" fill="none" xmlns="http://www.w3.org/2000/svg">
<path id="Vector" d="M5.80769 10V17.9615M13.5 10V17.9615M9.65385 11.7115V16.25M21.1923 10V17.9615M17.3462 11.7115V16.25M26 20.2308V24.0769C26 24.587 25.7974 25.0761 25.4367 25.4367C25.0761 25.7974 24.587 26 24.0769 26H20.2308M20.2308 1H24.0769C24.587 1 25.0761 1.20261 25.4367 1.56326C25.7974 1.9239 26 2.41305 26 2.92308V6.76923M1 6.76923V2.92308C1 2.41305 1.20261 1.9239 1.56326 1.56326C1.9239 1.20261 2.41305 1 2.92308 1H6.76923M6.76923 26H2.92308C2.41305 26 1.9239 25.7974 1.56326 25.4367C1.20261 25.0761 1 24.587 1 24.0769V20.2308" stroke="white" stroke-width="1.7" stroke-linecap="round" stroke-linejoin="round"/>
</svg>
