<svg width="28" height="29" viewBox="0 0 28 29" fill="none" xmlns="http://www.w3.org/2000/svg">
<g id="Group 1">
<path id="Vector" d="M8.23377 7.57999H4.47487C3.76279 7.57999 3.07987 7.86286 2.57635 8.36638C2.07282 8.86991 1.78995 9.55283 1.78995 10.2649V19.2147C1.78995 19.9267 2.07282 20.6097 2.57635 21.1132C3.07987 21.6167 3.76279 21.8996 4.47487 21.8996H7.1598V27.0869L13.0881 21.8996H20.5844C21.2154 21.8995 21.8263 21.6772 22.3098 21.2717C22.7932 20.8661 23.1184 20.3032 23.2282 19.6818C23.9254 19.114 24.5415 18.4533 25.0593 17.7183V19.2147C25.0593 19.8023 24.9435 20.3842 24.7187 20.9271C24.4938 21.47 24.1642 21.9633 23.7486 22.3789C23.3331 22.7944 22.8398 23.124 22.2969 23.3489C21.754 23.5738 21.1721 23.6895 20.5844 23.6895H13.7611L8.27851 28.4866C8.02483 28.7084 7.71263 28.8524 7.37926 28.9014C7.04589 28.9505 6.70545 28.9024 6.39864 28.7631C6.09184 28.6238 5.83166 28.399 5.64922 28.1157C5.46677 27.8324 5.36978 27.5026 5.36985 27.1656V23.6895H4.47487C3.28806 23.6895 2.14986 23.2181 1.31066 22.3789C0.471458 21.5397 0 20.4015 0 19.2147V10.2649C0 9.0781 0.471458 7.9399 1.31066 7.1007C2.14986 6.2615 3.28806 5.79004 4.47487 5.79004H9.40976C8.95384 6.34215 8.5595 6.94235 8.23377 7.57999Z" fill="white"/>
<path id="Vector_2" d="M19.1773 5.79734L19.1772 5.79734L19.1831 5.88319L19.1834 5.88661H19.1833L19.1867 9.71331C19.1868 9.88757 19.1208 10.0554 19.002 10.1829C18.8831 10.3103 18.7203 10.3879 18.5465 10.3999C18.3726 10.4119 18.2007 10.3574 18.0655 10.2475C17.9302 10.1375 17.8418 9.98036 17.8181 9.80772L17.8176 9.80433L17.8177 9.80432L17.8118 9.71762L17.8115 9.71424H17.8116L17.8082 5.88842V5.88839L17.8583 5.88835C17.8581 5.80456 17.8745 5.72157 17.9065 5.64413C17.9385 5.56669 17.9855 5.49631 18.0447 5.43702C18.1039 5.37773 18.1742 5.3307 18.2516 5.29861C18.329 5.26652 18.4111 5.25 18.4949 5.25L19.1773 5.79734ZM19.1773 5.79734L19.1768 5.794C19.1542 5.62925 19.0727 5.47829 18.9473 5.36907C18.8219 5.25985 18.6611 5.19979 18.4948 5.2L19.1773 5.79734ZM27.05 9.5C27.05 4.77869 23.2222 0.95 18.5 0.95C13.7778 0.95 9.95 4.77869 9.95 9.5C9.95 14.2213 13.7778 18.05 18.5 18.05C23.2222 18.05 27.05 14.2213 27.05 9.5ZM11.467 9.5C11.467 5.62186 14.6219 2.46695 18.5 2.46695C22.3781 2.46695 25.5331 5.62186 25.5331 9.5C25.5331 13.3781 22.3781 16.5331 18.5 16.5331C14.6219 16.5331 11.467 13.3781 11.467 9.5ZM19.1349 11.8401C18.9663 11.6714 18.7376 11.5767 18.4992 11.5767C18.2607 11.5767 18.032 11.6714 17.8634 11.8401C17.6947 12.0087 17.6 12.2374 17.6 12.4759C17.6 12.7143 17.6947 12.943 17.8634 13.1116C18.032 13.2803 18.2607 13.375 18.4992 13.375C18.7376 13.375 18.9663 13.2803 19.1349 13.1116C19.3036 12.943 19.3983 12.7143 19.3983 12.4759C19.3983 12.2374 19.3036 12.0087 19.1349 11.8401Z" fill="white" stroke="white" stroke-width="0.1"/>
</g>
</svg>
